<svg width="157" height="128" viewBox="0 0 157 128" fill="none" xmlns="http://www.w3.org/2000/svg">
<g clip-path="url(#clip0_28_729)">
<path d="M24.8025 0H0V21.1175H24.8554C40.5629 21.1175 53.3412 33.895 53.3412 49.6033C53.3412 65.3116 40.5629 78.0892 24.8554 78.0892H0V99.2066H24.8025C52.1533 99.2066 74.4058 76.9558 74.4058 49.6033C74.4058 22.2509 52.1533 0 24.8025 0Z" fill="white"/>
<path d="M131.418 0H156.22V21.1175H131.365C115.658 21.1175 102.879 33.895 102.879 49.6033C102.879 65.3116 115.658 78.0892 131.365 78.0892H156.22V99.2066H131.418C104.067 99.2066 81.8146 76.9558 81.8146 49.6033C81.8154 22.2509 104.067 0 131.418 0Z" fill="white"/>
<path d="M0 116.951H4.08859C7.47012 116.951 9.83702 119.164 9.83702 122.331C9.83702 125.498 7.47012 127.711 4.08859 127.711H0V116.951ZM4.05767 125.743C5.9787 125.743 7.3318 124.344 7.3318 122.33C7.3318 120.316 5.9787 118.918 4.05767 118.918H2.45885V125.743H4.05767Z" fill="white"/>
<path d="M12.6322 116.952H20.2097V118.888H15.1219V121.363H19.6564V123.192H15.1219V125.743H20.2707V127.711H12.6313V116.951L12.6322 116.952Z" fill="white"/>
<path d="M23.2281 116.951H25.7334L30.3598 124.206L30.2369 116.951H32.6502V127.711H30.145L25.5186 120.456L25.6414 127.711H23.2281V116.951Z" fill="white"/>
<path d="M38.4 118.919H35.3871V116.951H43.9019V118.919H40.889V127.711H38.3992V118.919H38.4Z" fill="white"/>
<path d="M45.1797 124.31L47.5775 124.156C47.5775 125.294 48.4384 126.063 49.6678 126.063C50.7133 126.063 51.4505 125.54 51.4505 124.756C51.4505 124.08 50.9891 123.665 50.1592 123.527L48.8216 123.343C46.4547 123.02 45.4864 121.698 45.4864 120.053C45.4864 118.039 47.1463 116.656 49.5596 116.656C51.8345 116.656 53.6026 118.162 53.5871 120.13L51.1429 120.253C51.1275 119.253 50.4513 118.562 49.4522 118.562C48.5458 118.562 47.9152 119.069 47.9152 119.822C47.9152 120.452 48.3147 120.868 49.0681 120.99L50.4058 121.19C52.7881 121.497 53.8947 122.85 53.8947 124.526C53.8947 126.585 52.1421 127.999 49.5913 127.999C47.0405 127.999 45.1797 126.493 45.1797 124.31Z" fill="white"/>
<path d="M56.4963 123.407V116.951H58.9861V123.33C58.9861 124.806 59.8314 125.713 61.1837 125.713C62.536 125.713 63.3814 124.806 63.3814 123.33V116.951H65.872V123.407C65.872 126.097 63.9656 127.926 61.1837 127.926C58.4019 127.926 56.4955 126.097 56.4955 123.407H56.4963Z" fill="white"/>
<path d="M72.6897 122.328C72.6897 119.147 75.1339 116.656 78.3152 116.656C81.2354 116.656 83.5568 118.577 83.6023 121.113L81.189 121.314C81.1272 119.869 79.9442 118.838 78.3144 118.838C76.5008 118.838 75.1941 120.268 75.1941 122.327C75.1941 124.387 76.4699 125.786 78.3144 125.786C79.8978 125.786 81.0963 124.756 81.189 123.25L83.5869 123.434C83.5559 126.001 81.2509 127.999 78.3144 127.999C75.1632 127.999 72.6888 125.54 72.6888 122.327L72.6897 122.328Z" fill="white"/>
<path d="M86.7742 116.951H91.4771C93.7675 116.951 95.3663 118.242 95.3663 120.117C95.3663 121.486 94.3208 122.53 92.8302 122.7C94.2134 122.777 95.0124 123.576 95.0897 125.021L95.1816 126.62C95.1971 127.127 95.2589 127.434 95.3818 127.711H92.892C92.8001 127.465 92.7537 127.127 92.7228 126.804L92.6455 125.206C92.5844 124.268 92.0767 123.822 91.093 123.822H89.233V127.711H86.7742V116.951ZM91.355 121.884C92.2468 121.884 92.8611 121.285 92.8611 120.424C92.8611 119.563 92.246 118.918 91.355 118.918H89.2338V121.884H91.355Z" fill="white"/>
<path d="M98.3687 116.952H105.946V118.888H100.858V121.363H105.393V123.192H100.858V125.743H106.008V127.711H98.3687V116.951V116.952Z" fill="white"/>
<path d="M115.847 125.159H111.467L110.545 127.711H108.193L112.235 116.951H115.201L119.229 127.711H116.77L115.847 125.159ZM115.14 123.254L113.649 119.15L112.158 123.254H115.14Z" fill="white"/>
<path d="M122.453 118.919H119.44V116.951H127.955V118.919H124.942V127.711H122.452V118.919H122.453Z" fill="white"/>
<path d="M130.906 116.951H133.365V127.711H130.906V116.951Z" fill="white"/>
<path d="M136.162 116.951H138.805L141.31 124.744L143.847 116.951H146.428L142.632 127.711H139.957L136.161 116.951H136.162Z" fill="white"/>
<path d="M148.581 116.952H156.159V118.888H151.071V121.363H155.606V123.192H151.071V125.743H156.221V127.711H148.581V116.951V116.952Z" fill="white"/>
</g>
<defs>
<clipPath id="clip0_28_729">
<rect width="156.221" height="128" fill="white"/>
</clipPath>
</defs>
</svg>
