<?xml version="1.0" encoding="UTF-8"?><svg id="Layer_1" xmlns="http://www.w3.org/2000/svg" width="240" height="240" viewBox="0 0 240 240"><defs><style>.cls-1{fill:#606060;}</style></defs><path class="cls-1" d="M91.46,136.41v8.96h-25.51v-8.96h-5.4v22.41h5.4v-8.96h25.51v8.96h5.37v-22.41h-5.37ZM24.7,147.61c0-3.72,3.01-6.72,6.72-6.72h21.47l2.68-4.48h-25.03c-.77,0-1.5.09-2.24.24-2.74.56-5.1,2.09-6.72,4.25-1.42,1.89-2.24,4.19-2.24,6.72,0,.77.09,1.5.24,2.24.32,1.65,1.03,3.18,2.01,4.48,1.62,2.15,3.98,3.72,6.72,4.25.74.15,1.47.24,2.24.24h22.35l2.68-4.48h-24.15c-2.92,0-5.43-1.86-6.34-4.48-.24-.71-.38-1.44-.38-2.24ZM179.33,143.13c0-3.72-3.01-6.72-6.72-6.72h-29.55l2.68,4.48h26.83c1.24,0,2.24,1,2.24,2.24s-1,2.24-2.24,2.24h-29.55v13.45h5.37v-8.96h19.87l5.16,8.96h5.84l-5.28-9.11c3.01-.68,5.28-3.36,5.28-6.58M213.06,136.41l-12.77,9.82-12.77-9.82h-7.87l17.46,13.45v8.96h6.1v-8.96l17.46-13.45h-7.61ZM107.2,143.07c.03-1.21,1.03-2.18,2.24-2.18h25.95l2.68-4.48h-29.55c-3.72,0-6.72,3.01-6.72,6.72v15.69h33.56l2.68-4.48h-30.87v-4.48h22.82l2.68-4.48h-25.51v-2.3h.03ZM159.96,107.9c-2.83,1.27-6.13.91-8.64-.91l-3.33-2.42-22.35-16.19-.09-.06-.06-.06-.15-.12c-.91-.65-3.75-2.57-5.84-3.39-.18-.09-.32-.15-.5-.21h-.03c-.53-.21-1.06-.35-1.65-.44.86,0,1.71,0,2.54.03h.56c13.98.35,26.39,2.3,35.09,5.22,8.02,2.71,12.86,6.25,12.86,10.11,0,3.07-3.07,5.96-8.38,8.34M137.13,113.62c-6.46.86-13.62,1.3-21.14,1.3s-14.68-.47-21.14-1.3c-5.9-1.06-3.07-5.07-1.5-6.78,0,0,0-.03.06-.06.38-.41.68-.68.71-.74,1-1.03,2.03-2.03,3.07-3.04,3.45-3.33,6.96-6.46,10.44-9.32,1.06-.88,2.15-1.74,3.21-2.59.06-.03.18-.15.32-.27.83-.62,2.92-2.01,4.81-2.01s3.98,1.39,4.81,2.01c.03,0,.09.06.12.09.03,0,.06.06.09.06.03.03.09.06.09.09h.03c1.06.83,2.15,1.71,3.21,2.59,3.48,2.86,6.96,5.99,10.41,9.32,1.03,1,2.06,2.03,3.07,3.04v.03c.09.09.35.32.68.68,1.53,1.68,4.51,5.78-1.44,6.84M80.66,106.98c-2.51,1.83-5.81,2.18-8.64.91-5.31-2.42-8.37-5.28-8.37-8.34,0-3.86,4.84-7.4,12.86-10.11,8.7-2.92,21.11-4.89,35.09-5.22h.56c.86,0,1.68-.03,2.54-.03-.56.09-1.12.24-1.65.44-.18.06-.35.15-.53.21-2.09.83-4.92,2.74-5.84,3.39l-.15.12-.15.09-22.35,16.19-3.33,2.42-.03-.06ZM156.33,86.31c-8.61-2.57-19.43-4.33-31.4-4.92-2.8-.15-5.66-.21-8.58-.21h-.71c-2.92,0-5.78.09-8.58.21-11.97.59-22.82,2.36-31.4,4.92-12.33,3.69-20.08,9.02-20.08,14.98,0,5.04,5.57,9.64,14.74,13.18,3.72,1.44,8.05,2.68,12.86,3.72,3.89.86,8.11,1.53,12.56,2.06,6.34.74,13.15,1.15,20.23,1.15s13.92-.41,20.23-1.15c4.45-.53,8.67-1.21,12.56-2.06,4.81-1.03,9.11-2.3,12.86-3.72,9.2-3.54,14.74-8.14,14.74-13.18,0-5.96-7.75-11.29-20.08-14.98"/></svg>