<?xml version="1.0" encoding="UTF-8"?><svg id="Layer_1" xmlns="http://www.w3.org/2000/svg" width="240" height="240" viewBox="0 0 240 240"><defs><style>.cls-1{fill:#606060;}</style></defs><path class="cls-1" d="M120,51.45c-37.86,0-68.55,30.69-68.55,68.55s30.69,68.55,68.55,68.55,68.55-30.69,68.55-68.55-30.69-68.55-68.55-68.55ZM72.03,135.19c-5.01,0-9.06-4.06-9.06-9.06s4.06,2.1,9.06,2.1,9.06-7.11,9.06-2.1-4.06,9.06-9.06,9.06ZM112.6,153.16c-11.9,0-21.54,1.13-21.54-10.77l43.08-10.77c0,11.9-9.64,21.54-21.54,21.54ZM147.72,135.19c-5.01,0-9.06-4.06-9.06-9.06s4.06,2.32,9.06,2.32,9.06-7.33,9.06-2.32-4.06,9.06-9.06,9.06Z"/></svg>