<?xml version="1.0" encoding="UTF-8"?><svg id="Layer_1" xmlns="http://www.w3.org/2000/svg" width="240" height="240" viewBox="0 0 240 240"><defs><style>.cls-1{fill:#606060;}</style></defs><path class="cls-1" d="M50.82,127.49c-.38.02-.76-.11-1.05-.36-.25-.3-.36-.68-.32-1.07v-36.31c-.04-.38.07-.77.32-1.07.3-.22.66-.33,1.03-.3h3.95c.75-.07,1.42.45,1.53,1.19l.39,1.42c1.14-1.1,2.48-1.96,3.95-2.55,1.5-.61,3.11-.92,4.73-.93,3.24-.11,6.33,1.33,8.33,3.88,2.2,3.04,3.3,6.74,3.1,10.48.06,2.72-.46,5.42-1.53,7.92-.88,2.08-2.32,3.89-4.15,5.22-1.77,1.21-3.88,1.83-6.02,1.78-1.45,0-2.9-.23-4.27-.71-1.26-.42-2.43-1.09-3.44-1.96v11.96c.04.38-.07.76-.3,1.07-.3.24-.69.34-1.07.3l-5.2.02ZM62.8,110.83c1.76.13,3.46-.66,4.5-2.08,1.11-1.99,1.61-4.26,1.44-6.53.17-2.29-.32-4.59-1.42-6.6-1.05-1.44-2.77-2.23-4.54-2.08-1.88,0-3.73.51-5.34,1.48v14.33c1.6,1,3.45,1.52,5.34,1.51l.02-.02ZM83.56,116.24c-.64.12-1.25-.3-1.37-.94-.03-.14-.03-.29,0-.43v-25.12c-.04-.38.07-.77.32-1.07.3-.22.66-.33,1.03-.3h3.93c.75-.07,1.42.45,1.53,1.19l.71,2.92c1.17-1.37,2.57-2.53,4.13-3.42,1.27-.67,2.69-1.01,4.13-1.01h.77c.39-.03.77.07,1.09.3.25.3.36.68.32,1.07v4.59c.03.37-.08.74-.3,1.03-.3.25-.68.36-1.07.32h-2.51c-1.03.02-2.05.14-3.06.36-1.05.19-2.08.5-3.06.91v18.24c.03.37-.08.74-.3,1.03-.3.25-.68.36-1.07.32h-5.22ZM108.03,84.04c-1.21.06-2.4-.35-3.33-1.14-.86-.8-1.32-1.94-1.26-3.11-.06-1.18.4-2.33,1.26-3.13,1.95-1.56,4.72-1.56,6.67,0,.86.8,1.32,1.94,1.26,3.12.06,1.17-.41,2.31-1.26,3.11-.93.8-2.12,1.22-3.35,1.16ZM105.42,116.26c-.64.12-1.25-.3-1.37-.94-.03-.14-.03-.29,0-.43v-25.13c-.04-.38.07-.77.32-1.07.3-.22.66-.33,1.03-.3h5.25c.38-.04.76.07,1.07.3.23.3.34.69.3,1.07v25.13c.03.37-.08.74-.3,1.03-.3.25-.68.36-1.07.32l-5.23.02ZM120.15,116.24c-.64.12-1.25-.3-1.37-.94-.03-.14-.03-.29,0-.43v-25.12c-.04-.38.07-.77.32-1.07.3-.22.66-.33,1.03-.3h3.93c.75-.07,1.42.45,1.53,1.19l.44,1.48c1.62-1.12,3.37-2.02,5.22-2.71,1.52-.53,3.12-.81,4.73-.82,2.81-.24,5.5,1.14,6.94,3.56,1.63-1.12,3.39-2.01,5.25-2.67,1.64-.55,3.36-.82,5.09-.82,2.19-.13,4.33.64,5.93,2.14,1.47,1.62,2.23,3.76,2.1,5.95v19.21c.03.37-.08.74-.3,1.03-.3.25-.68.36-1.07.32h-5.18c-.64.12-1.25-.3-1.37-.94-.03-.14-.03-.29,0-.43v-17.52c0-2.48-1.11-3.72-3.33-3.72-2.07.02-4.11.51-5.96,1.42v19.83c.03.37-.08.74-.3,1.03-.3.25-.68.36-1.07.32h-5.23c-.64.12-1.25-.3-1.37-.94-.03-.14-.03-.29,0-.43v-17.52c0-2.48-1.11-3.72-3.33-3.72-2.09.01-4.15.52-6.02,1.48v19.76c.03.37-.08.74-.3,1.03-.3.25-.68.36-1.07.32l-5.25.02ZM180.35,117.06c-3.84.25-7.61-1.09-10.41-3.72-2.57-2.94-3.85-6.79-3.56-10.68-.26-4.04,1.04-8.02,3.63-11.12,2.7-2.78,6.47-4.26,10.34-4.04,2.86-.17,5.69.7,7.96,2.46,1.92,1.64,2.98,4.07,2.87,6.59.13,2.47-1.05,4.82-3.1,6.19-2.76,1.58-5.92,2.31-9.1,2.1-1.8.02-3.59-.18-5.34-.61.01,1.97.8,3.85,2.21,5.23,1.66,1.18,3.68,1.74,5.71,1.58.99,0,1.99-.07,2.97-.2,1.36-.21,2.7-.5,4.02-.85h.59c.62,0,.93.42.93,1.26v2.51c.03.43-.05.85-.25,1.23-.25.3-.59.51-.96.62-2.72,1-5.61,1.49-8.51,1.44ZM178.57,99.92c1.4.1,2.8-.19,4.04-.85.85-.58,1.33-1.57,1.26-2.6,0-2.29-1.37-3.44-4.09-3.44-3.5,0-5.52,2.15-6.07,6.44,1.59.3,3.21.45,4.82.44h.04ZM177.49,146.91c-15.59,11.5-38.2,17.6-57.65,17.6-26,.14-51.11-9.43-70.43-26.82-1.46-1.32-.16-3.11,1.6-2.1,21.46,12.26,45.75,18.69,70.47,18.67,18.44-.1,36.69-3.83,53.68-10.98,2.71-1.12,4.91,1.66,2.33,3.63ZM184.06,139.6c-1.99-2.55-13.17-1.21-18.21-.61-1.53.18-1.78-1.14-.39-2.1,8.9-6.27,23.55-4.45,25.24-2.35,1.69,2.1-.45,16.75-8.9,23.75-1.28,1.07-2.51.5-1.94-.93,1.9-4.79,6.12-15.29,4.2-17.76Z"/></svg>