<?xml version="1.0" encoding="UTF-8"?><svg id="Layer_1" xmlns="http://www.w3.org/2000/svg" width="240" height="240" viewBox="0 0 240 240"><defs><style>.cls-1{fill:#606060;}</style></defs><path class="cls-1" d="M104.93,129.95c0,2.28.06,4.96.51,7.66-2.48,1.84-5.88,4.3-12.02,4.3-6.92,0-10.28-2.69-10.28-8.22,0-8.15,9.32-9.2,17.45-9.2,1.36,0,2.55.07,4.33.28v5.17ZM190.54,121.3c0,35.07-25.67,60.62-63.1,60.62s-78.47-25.55-78.47-60.62,42.79-63.13,80.22-63.13,61.35,28.06,61.35,63.13ZM173.26,148.27c1.06-1.07,1.67-2.51,1.67-3.95,0-3.16-1.99-5.28-4.94-5.28-1.66,0-2.97.48-3.44.67-.38.14-.76.29-1.14.43-1.22.49-2.48,1-4.68,1s-4.05-.42-6.03-.86c-2.04-.45-4.15-.92-6.66-.92-.54,0-1.35,0-2.22.07,4.83-3,9.46-6.68,13.11-10.44,6.37-6.77,9.59-13.86,9.59-21.08,0-12.6-8.82-20.44-23.02-20.44-7.56,0-15.51,2.87-19.77,7.14-1.32,1.33-1.99,2.96-1.99,4.84,0,3.38,2.48,5.16,4.93,5.16,1.79,0,3.17-.59,4.05-1.03.75-.38,1.57-.84,2.35-1.29,2.91-1.68,6.2-3.57,10.22-3.57,4.69,0,10.28,1.65,10.28,9.54,0,6.08-3.11,11.79-9.79,17.95-10.54,9.66-19.32,15.92-22.38,15.92-1.67,0-5.99-1.94-5.99-10.75v-23.57c0-12.53-8.69-20.31-22.7-20.31-7.52,0-15.41,2.85-19.65,7.1-1.31,1.33-1.98,2.94-1.98,4.8,0,3.38,2.47,5.14,4.91,5.14,1.34,0,2.66-.34,4.02-1.04.73-.37,1.5-.81,2.34-1.28,2.89-1.67,6.16-3.56,10.15-3.56,6.73,0,10.42,3.37,10.42,9.48v7.43c-2.14-.13-3.93-.19-5.32-.19-13.22,0-28.98,3.36-28.98,19.32,0,5.62,2.31,10.24,6.67,13.36,3.81,2.72,9.1,4.21,14.92,4.21,7.84,0,14.54-3.72,17.27-6.32,3.08,3.93,6.61,6.53,13.61,6.53,1.01,0,2.11-.06,3.27-.16,1.72-.16,3.36-.58,5.11-1.04,2.59-.68,5.53-1.44,9.4-1.44,3.06,0,6.62.61,10.08,1.21,3.49.6,7.09,1.22,10.22,1.22,2.43,0,8.49-.39,12.09-3.99ZM39.02,108.44l-.52,2.02c-.14.53-.68.85-1.22.72-.53-.14-.85-.69-.71-1.22l1.58-6.14c.14-.53.69-.85,1.22-.72.53.14.85.69.72,1.22l-.52,2.02,6.62,1.72c.58.15.93.73.78,1.32-.15.59-.74.93-1.32.78l-6.62-1.72ZM41.56,97.53c-.54-.28-.73-.93-.45-1.47.28-.53.93-.73,1.46-.45l2.56,1.36,1.86-3.54-2.56-1.35c-.53-.28-.73-.93-.45-1.47.28-.53.93-.73,1.46-.45l6.93,3.67c.53.28.73.93.45,1.47-.28.53-.93.73-1.46.45l-2.61-1.38-1.86,3.54,2.61,1.38c.53.28.73.93.45,1.47-.28.53-.93.73-1.46.45l-6.93-3.67ZM55.14,89.65l-5.95-4.85c-.47-.38-.54-1.06-.16-1.52l3.44-4.24c.34-.41.95-.48,1.36-.14.42.34.47.94.13,1.36l-2.77,3.41,1.55,1.26,2.36-2.92c.34-.42.95-.48,1.37-.14.41.34.46.94.13,1.36l-2.37,2.92,1.6,1.3,2.81-3.46c.34-.41.95-.48,1.37-.14.41.34.46.94.13,1.36l-3.48,4.3c-.38.47-1.05.54-1.52.16ZM64.24,76.89l-.02-.03c-1.35-1.68-.71-3.56,1.18-5.1.86-.7,1.59-1.07,2.34-1.37l-.15-.19c-.89-1.1-2.04-1.14-3.29-.13-.67.55-1.14,1.12-1.47,1.7-.08.11-.15.2-.25.27-.41.33-1.01.28-1.34-.13-.26-.32-.27-.78-.09-1.1.51-.87,1.11-1.66,2.12-2.48,1.16-.94,2.28-1.34,3.27-1.22,1.02.09,1.95.7,2.77,1.72l3.09,3.82c.39.49.31,1.17-.18,1.56-.51.42-1.15.35-1.47-.05l-.24-.29c-.02,1.06-.42,2.22-1.61,3.18-1.45,1.18-3.42,1.39-4.68-.17ZM69.1,72.02l-.43-.53c-.6.19-1.3.55-2.01,1.12-1.15.93-1.43,1.96-.77,2.77l.02.03c.61.75,1.61.64,2.46-.05,1.17-.95,1.52-2.35.73-3.34ZM75.14,69.44l1.17-3.46c.51-1.51.63-2.23.2-2.93-.44-.71-1.15-.8-1.81-.39-.53.33-.76.79-.91,1.59-.04.21-.17.48-.46.65-.47.29-1.07.15-1.37-.32-.13-.2-.18-.47-.14-.71.18-1.2.69-2.16,1.97-2.96,1.74-1.09,3.53-.78,4.51.79v.03c.89,1.41.6,2.56-.17,4.65l-.71,1.92,2.93-1.83c.45-.28,1.03-.14,1.31.3.28.44.13,1.02-.31,1.3l-4.57,2.85c-.58.36-1.2.3-1.54-.26-.23-.36-.25-.78-.1-1.23ZM86.1,55.54c-.23-.56.03-1.18.59-1.41l.22-.09c.43-.17.82-.08,1.12.15l4.03,2.95.81-4.96c.07-.42.28-.71.69-.88l.22-.09c.56-.23,1.18.03,1.41.59l2.97,7.24c.23.56-.03,1.18-.59,1.42-.55.22-1.17-.05-1.4-.6l-1.87-4.54-.64,3.43c-.08.4-.26.7-.62.85-.36.15-.7.06-1.04-.17l-2.82-1.96,1.86,4.53c.22.55-.04,1.16-.59,1.38-.55.23-1.15-.03-1.37-.57l-2.98-7.27ZM100.95,49.97c-.17-.58.16-1.17.74-1.34.58-.17,1.17.16,1.34.74l2.17,7.55c.17.58-.16,1.17-.74,1.34-.58.17-1.17-.16-1.34-.74l-2.17-7.55ZM108.82,47.89c-.11-.6.27-1.16.86-1.27.59-.11,1.15.27,1.26.87l1.26,6.77,3.93-.73c.54-.1,1.05.25,1.15.79.1.54-.25,1.05-.79,1.15l-5,.93c-.59.11-1.15-.27-1.26-.87l-1.42-7.64ZM121.12,45.96c-.03-.61.42-1.11,1.03-1.14.6-.03,1.1.43,1.13,1.03l.16,3.3,3.79-4.16c.26-.28.51-.45.89-.47.6-.03,1.02.41,1.05.95.02.34-.13.6-.35.84l-2.64,2.72,3.2,3.65c.18.2.32.42.33.74.03.61-.41,1.08-1.04,1.11-.42.02-.68-.18-.94-.48l-2.98-3.55-1.18,1.21.09,1.97c.03.61-.42,1.11-1.03,1.14-.6.03-1.1-.42-1.13-1.03l-.38-7.85ZM138.37,50.02v-.03c.49-2.76,2.96-4.65,5.94-4.13,1.45.26,2.37.82,3.06,1.55.19.21.33.55.27.92-.1.58-.65.96-1.24.85-.29-.05-.46-.19-.6-.32-.52-.55-1.1-.91-1.86-1.04-1.63-.29-3.05.87-3.34,2.53v.03c-.29,1.67.61,3.26,2.27,3.55.9.16,1.54-.01,2.24-.39.19-.11.43-.17.68-.12.54.09.92.62.82,1.16-.06.33-.27.57-.49.7-1,.61-2.11.89-3.66.61-2.85-.5-4.58-3.08-4.09-5.87ZM151.59,52.71v-.03c1.04-2.61,3.93-3.93,6.75-2.81,2.82,1.12,4.02,4.03,2.99,6.64v.03c-1.04,2.61-3.93,3.93-6.75,2.81-2.82-1.12-4.01-4.03-2.99-6.64ZM159.2,55.73v-.03c.63-1.57,0-3.34-1.62-3.98-1.62-.64-3.25.2-3.87,1.77v.03c-.63,1.57,0,3.33,1.62,3.98,1.62.64,3.25-.2,3.87-1.77ZM168.14,55.84c.35-.5,1.01-.61,1.5-.27l.2.14c.38.27.51.65.48,1.03l-.29,5,4.59-2.01c.39-.17.75-.15,1.11.11l.19.14c.5.35.62,1.01.27,1.51l-4.47,6.42c-.35.5-1.01.62-1.51.27-.48-.34-.59-1.02-.26-1.5l2.8-4.03-3.22,1.31c-.38.15-.73.16-1.05-.06-.32-.23-.43-.56-.42-.96l.12-3.44-2.79,4.02c-.34.49-1,.59-1.48.25-.48-.34-.6-.98-.26-1.47l4.48-6.44ZM180.9,65.87c.44-.41,1.12-.39,1.53.06l1.99,2.16c1.59,1.73,1.53,3.72.05,5.09l-.02.02c-1.67,1.55-3.74,1.05-5.23-.58l-1.12-1.21-1.43,1.33c-.44.41-1.12.39-1.53-.06-.41-.44-.38-1.12.06-1.53l5.7-5.27ZM180.68,71.37c.74.8,1.64.82,2.26.25l.02-.02c.71-.66.64-1.51-.1-2.3l-1.13-1.23-2.21,2.05,1.16,1.26ZM182.66,79.04l8.38-1.17c.58-.08,1.08.12,1.39.62l.07.11c.31.5.26,1.03-.07,1.52l-4.77,7.01c-.09.14-.19.25-.31.33-.49.3-1.12.17-1.42-.33-.27-.43-.19-.87.08-1.28l.96-1.38-2.28-3.69-1.74.27c-.46.06-.86-.11-1.1-.5-.3-.48-.15-1.09.33-1.39.13-.08.29-.11.46-.14ZM188.18,82.79l2.04-2.87-3.48.55,1.44,2.32ZM196.55,88.67c.57-.21,1.18.08,1.39.64l.08.21c.18.49.05.87-.21,1.28l-3.71,5.82,4.76-1.75c.56-.2,1.17.08,1.37.63.2.56-.08,1.17-.63,1.38l-7.35,2.7c-.57.21-1.18-.07-1.39-.64l-.02-.07c-.18-.49-.05-.87.21-1.28l3.84-6.03-4.94,1.82c-.56.2-1.17-.08-1.37-.63-.2-.56.08-1.17.63-1.38l7.35-2.7ZM196.63,106.53l3.71-3.87c.18-.19.41-.34.71-.39.57-.1,1.11.29,1.21.89.08.49-.13.84-.47,1.17l-2.99,2.94,3.83,1.81c.43.2.74.47.81.92.11.65-.28,1.12-.86,1.22-.29.05-.58-.04-.8-.15l-4.76-2.4-2.79.48c-.6.1-1.15-.29-1.25-.89-.1-.6.29-1.15.88-1.25l2.75-.48ZM45.12,130.97c.58-.16,1.17.17,1.33.76l1.45,5.32c.15.53-.16,1.06-.69,1.21-.53.15-1.07-.16-1.21-.69l-1.16-4.28-2.02.55,1,3.67c.15.53-.16,1.07-.69,1.21-.53.14-1.06-.16-1.21-.69l-1-3.67-2.71.74c-.58.16-1.17-.18-1.33-.76-.16-.58.17-1.17.76-1.33l7.48-2.04ZM42.16,146.17l6.74-3.66c.53-.29,1.18-.09,1.47.44l2.59,4.81c.25.47.08,1.06-.39,1.32-.47.25-1.05.07-1.3-.4l-2.09-3.86-1.75.95,1.79,3.31c.25.47.08,1.06-.39,1.32-.47.26-1.05.07-1.3-.4l-1.78-3.31-1.81.99,2.12,3.93c.26.47.08,1.06-.39,1.32-.47.26-1.05.07-1.3-.4l-2.63-4.87c-.29-.53-.1-1.18.44-1.47ZM49.23,157.82l5.89-4.93c.46-.39,1.14-.33,1.52.14l3.49,4.19c.34.41.29,1.03-.12,1.37-.41.34-1.01.28-1.35-.13l-2.81-3.37-1.53,1.28,2.4,2.89c.34.41.29,1.03-.12,1.37-.41.34-1.01.28-1.36-.13l-2.4-2.89-1.58,1.33,2.85,3.43c.34.41.29,1.03-.12,1.37-.41.34-1.01.28-1.35-.13l-3.54-4.25c-.38-.47-.33-1.14.14-1.53ZM63.04,161.62c.4-.46,1.07-.51,1.53-.11.46.4.5,1.07.11,1.53l-4.51,5.19,3.02,2.64c.41.36.46.98.1,1.39-.36.41-.97.46-1.39.09l-3.83-3.35c-.46-.4-.5-1.08-.1-1.53l5.09-5.86ZM74.33,171.68l-1.76-1.12c-.46-.29-.6-.92-.31-1.38.29-.47.91-.61,1.37-.31l5.33,3.4c.46.29.6.92.31,1.38-.29.47-.91.6-1.37.31l-1.76-1.12-3.66,5.79c-.32.51-.98.66-1.49.33-.51-.32-.66-.98-.33-1.49l3.66-5.79ZM82.56,175.44c.25-.55.89-.78,1.44-.52.55.26.78.89.52,1.44l-1.23,2.63,3.61,1.7,1.23-2.63c.26-.55.89-.78,1.44-.52.55.26.77.89.52,1.44l-3.32,7.12c-.25.55-.89.78-1.44.52-.55-.26-.78-.89-.52-1.44l1.25-2.68-3.61-1.7-1.25,2.68c-.25.55-.89.78-1.44.52-.55-.26-.78-.89-.52-1.44l3.32-7.12ZM91.87,187.98l2.38-7.31c.19-.58.79-.88,1.37-.7l5.18,1.7c.51.17.79.72.62,1.23-.16.51-.71.77-1.22.61l-4.17-1.36-.62,1.9,3.56,1.17c.51.17.79.72.62,1.23-.17.51-.71.78-1.22.61l-3.56-1.16-.64,1.97,4.23,1.38c.51.17.78.71.62,1.23-.16.51-.71.77-1.22.61l-5.25-1.72c-.57-.19-.88-.79-.69-1.36ZM108.99,184.85c.09-.6.64-1,1.23-.91l2.72.42c3.05.47,4.84,2.9,4.42,5.64v.03c-.43,2.74-2.86,4.55-5.92,4.07l-2.72-.42c-.6-.09-1-.64-.9-1.24l1.17-7.6ZM111.74,192.17c1.75.27,3.11-.73,3.38-2.46v-.03c.27-1.73-.72-3.12-2.47-3.39l-1.65-.26-.9,5.88,1.65.26ZM121.97,186.37c.03-.6.53-1.06,1.13-1.03.6.03,1.06.53,1.03,1.14l-.38,7.85c-.03.61-.53,1.06-1.13,1.03-.6-.03-1.06-.53-1.03-1.14l.38-7.85ZM128.56,186.68c-.03-.6.42-1.11,1.02-1.14l5.5-.3c.55-.03,1,.38,1.03.93.03.55-.38,1.01-.93,1.04l-4.42.24.12,2.1,3.78-.21c.55-.03,1.01.38,1.04.93.03.55-.38,1.01-.93,1.04l-3.79.21.15,2.81c.04.6-.42,1.11-1.02,1.14-.6.03-1.1-.42-1.14-1.02l-.42-7.76ZM140.03,185.72c-.12-.6.25-1.16.85-1.28l5.39-1.1c.54-.11,1.05.23,1.16.77.11.54-.23,1.06-.77,1.16l-4.33.88.42,2.06,3.72-.76c.53-.11,1.05.23,1.16.77.11.54-.23,1.05-.77,1.16l-3.71.76.56,2.76c.12.59-.25,1.16-.84,1.28-.59.12-1.16-.25-1.28-.85l-1.55-7.62ZM154.06,190.22l-2.73-7.19c-.21-.57.06-1.18.63-1.4l5.09-1.94c.5-.19,1.06.06,1.25.56.19.5-.07,1.05-.57,1.24l-4.1,1.56.71,1.87,3.5-1.34c.5-.19,1.06.06,1.25.56.19.5-.07,1.05-.57,1.24l-3.5,1.34.73,1.94,4.16-1.59c.5-.19,1.06.07,1.25.56.19.5-.07,1.05-.57,1.24l-5.16,1.97c-.57.22-1.18-.06-1.39-.63ZM162.4,178.38c-.32-.52-.16-1.18.35-1.49l2.91-1.79c1.07-.66,2.07-.86,2.96-.65.75.18,1.41.69,1.89,1.48l.02.02c.81,1.32.65,2.54-.11,3.59l2.24.77c.32.12.55.24.73.52.31.51.09,1.12-.35,1.39-.42.26-.82.22-1.2.08l-3.19-1.18-1.47.91,1.12,1.83c.32.52.16,1.18-.36,1.49-.51.32-1.17.16-1.49-.36l-4.05-6.63ZM168.04,179.25c.9-.55,1.12-1.35.69-2.06l-.02-.03c-.48-.79-1.29-.86-2.18-.31l-1.83,1.13,1.47,2.41,1.87-1.15ZM178.31,176.78l-5.25-5.6c-.41-.44-.39-1.12.05-1.53l3.97-3.74c.39-.37,1-.35,1.37.04.36.39.34,1-.05,1.36l-3.2,3.01,1.37,1.46,2.73-2.58c.39-.37,1-.35,1.37.04.36.39.34,1-.05,1.36l-2.73,2.57,1.41,1.51,3.24-3.06c.39-.37,1-.35,1.37.04.37.39.34,1-.05,1.36l-4.02,3.79c-.44.41-1.12.4-1.53-.05ZM181.59,162.42c-.5-.34-.62-1.01-.28-1.51l.13-.18c.29-.43.68-.54,1.15-.57l6.88-.35-4.19-2.87c-.48-.33-.61-1-.28-1.49.33-.49.99-.61,1.49-.28l6.46,4.43c.5.34.62,1.01.28,1.5l-.04.06c-.29.43-.68.54-1.15.57l-7.13.37,4.35,2.98c.49.34.61,1,.28,1.49-.33.49-1,.61-1.48.28l-6.46-4.42ZM192.38,152.45h-.03c-2.59-1.05-3.93-3.86-2.81-6.67.55-1.37,1.29-2.15,2.15-2.69.24-.15.6-.21.95-.07.55.22.8.84.58,1.38-.11.28-.29.42-.43.53-.64.39-1.11.89-1.4,1.61-.62,1.54.22,3.17,1.78,3.79h.03c1.57.64,3.3.07,3.93-1.49.34-.85.3-1.52.07-2.28-.07-.21-.07-.46.02-.69.2-.51.79-.77,1.3-.57.31.13.5.38.58.63.39,1.11.43,2.25-.15,3.71-1.08,2.69-3.94,3.86-6.57,2.81ZM200.81,139.81l-7.53-1.46c-.59-.11-.97-.68-.86-1.27l1.03-5.37c.1-.52.61-.87,1.14-.77.52.1.85.61.75,1.14l-.83,4.31,1.95.38.71-3.69c.1-.53.61-.87,1.14-.77.52.1.85.61.75,1.14l-.71,3.69,2.03.39.85-4.38c.1-.53.61-.87,1.13-.77.53.1.85.61.76,1.14l-1.05,5.43c-.11.6-.67.97-1.26.86ZM40.33,119.12c-1.2,0-2.17.97-2.17,2.18s.97,2.18,2.17,2.18,2.17-.97,2.17-2.18-.97-2.18-2.17-2.18ZM199.2,119.12c-1.2,0-2.17.97-2.17,2.18s.97,2.18,2.17,2.18,2.17-.97,2.17-2.18-.97-2.18-2.17-2.18ZM195.59,67.84c0-2.18,1.77-3.95,3.94-3.95s3.94,1.77,3.94,3.95-1.77,3.95-3.94,3.95-3.94-1.77-3.94-3.95ZM202.51,67.84c0-1.85-1.33-3.18-2.98-3.18s-2.98,1.33-2.98,3.18,1.33,3.18,2.98,3.18,2.98-1.34,2.98-3.18ZM198.01,65.59h1.66c1.07,0,1.65.37,1.65,1.31,0,.77-.44,1.14-1.17,1.2l1.2,1.96h-.85l-1.16-1.93h-.5v1.93h-.83v-4.48ZM198.84,67.5h.73c.49,0,.92-.06.92-.67,0-.53-.48-.61-.91-.61h-.74v1.28Z"/></svg>