<?xml version="1.0" encoding="UTF-8"?><svg id="Layer_1" xmlns="http://www.w3.org/2000/svg" width="128" height="128" viewBox="0 0 128 128"><defs><style>.cls-1{fill:#fff;}</style></defs><rect width="128" height="128"/><path class="cls-1" d="M28.29,30.77H11.68v14.15h16.65c10.52,0,19.08,8.56,19.08,19.08s-8.56,19.08-19.08,19.08H11.68v14.15h16.61c18.32,0,33.23-14.91,33.23-33.23S46.61,30.77,28.29,30.77Z"/><path class="cls-1" d="M99.71,30.77h16.61v14.15h-16.65c-10.52,0-19.08,8.56-19.08,19.08s8.56,19.08,19.08,19.08h16.65v14.15h-16.61c-18.32,0-33.23-14.91-33.23-33.23,0-18.32,14.91-33.23,33.23-33.23Z"/></svg>