<?xml version="1.0" encoding="UTF-8"?>
<svg id="Layer_1" xmlns="http://www.w3.org/2000/svg" xmlns:xlink="http://www.w3.org/1999/xlink" version="1.1" viewBox="0 0 732 1500">
  <!-- Generator: Adobe Illustrator 30.0.0, SVG Export Plug-In . SVG Version: 2.1.1 Build 123)  -->
  <defs>
    <style>
      .st0, .st1, .st2, .st3, .st4, .st5 {
        fill: none;
      }

      .st1, .st2, .st6 {
        stroke-width: 1.9px;
      }

      .st1, .st6 {
        stroke: #000;
      }

      .st2 {
        stroke: #5f5f5f;
      }

      .st7 {
        fill: #909090;
      }

      .st8 {
        fill: url(#linear-gradient1);
      }

      .st9 {
        fill: url(#linear-gradient7);
      }

      .st10 {
        fill: url(#linear-gradient4);
      }

      .st3 {
        stroke: #232323;
        stroke-width: .8px;
      }

      .st11 {
        fill: url(#linear-gradient13);
      }

      .st12 {
        fill: url(#linear-gradient12);
      }

      .st13 {
        fill: url(#linear-gradient15);
      }

      .st14 {
        fill: url(#linear-gradient16);
      }

      .st15 {
        fill: url(#linear-gradient10);
      }

      .st16 {
        fill: url(#linear-gradient14);
      }

      .st17 {
        fill: #030303;
      }

      .st18 {
        fill: #0e0b0f;
      }

      .st19 {
        fill: #373737;
      }

      .st20 {
        fill: #161424;
      }

      .st21 {
        clip-path: url(#clippath-1);
      }

      .st22 {
        clip-path: url(#clippath-3);
      }

      .st23 {
        clip-path: url(#clippath-4);
      }

      .st24 {
        clip-path: url(#clippath-2);
      }

      .st4 {
        stroke: #7b7b7b;
        stroke-width: 5.7px;
      }

      .st25, .st26 {
        fill: #fff;
      }

      .st5 {
        opacity: .3;
        stroke: #fff;
        stroke-width: 2px;
      }

      .st5, .st27, .st28, .st29, .st30, .st31, .st32, .st33, .st34, .st26 {
        isolation: isolate;
      }

      .st35 {
        fill: #0f0f2a;
      }

      .st27 {
        fill: url(#linear-gradient11);
      }

      .st27, .st32, .st33, .st34 {
        opacity: .5;
      }

      .st36 {
        fill: #393752;
      }

      .st28 {
        fill: url(#linear-gradient);
      }

      .st28, .st29, .st30, .st31 {
        opacity: .8;
      }

      .st6 {
        fill: #222;
      }

      .st29 {
        fill: url(#linear-gradient3);
      }

      .st30 {
        fill: url(#linear-gradient6);
      }

      .st31 {
        fill: url(#linear-gradient9);
      }

      .st37 {
        fill: #555;
        fill-opacity: .8;
      }

      .st32 {
        fill: url(#linear-gradient5);
      }

      .st33 {
        fill: url(#linear-gradient8);
      }

      .st34 {
        fill: url(#linear-gradient2);
      }

      .st38 {
        clip-path: url(#clippath);
      }

      .st26 {
        opacity: .4;
      }
    </style>
    <clipPath id="clippath">
      <path class="st0" d="M731.7,660.8c0,2.1-1.7,3.8-3.8,3.8h-5.7v-183.3h5.7c2.1,0,3.8,1.7,3.8,3.8v175.7Z"/>
    </clipPath>
    <linearGradient id="linear-gradient" x1="727" y1="837.3" x2="727" y2="845.9" gradientTransform="translate(0 1500) scale(1 -1)" gradientUnits="userSpaceOnUse">
      <stop offset="0" stop-color="#000"/>
      <stop offset="1" stop-color="#000" stop-opacity="0"/>
    </linearGradient>
    <linearGradient id="linear-gradient1" x1="722.2" y1="931.8" x2="728.9" y2="931.8" gradientTransform="translate(0 1500) scale(1 -1)" gradientUnits="userSpaceOnUse">
      <stop offset="0" stop-color="#000"/>
      <stop offset="1" stop-color="#aeaeae" stop-opacity="0"/>
    </linearGradient>
    <linearGradient id="linear-gradient2" x1="727" y1="1017.8" x2="727" y2="1026.4" gradientTransform="translate(0 1500) scale(1 -1)" gradientUnits="userSpaceOnUse">
      <stop offset="0" stop-color="#000" stop-opacity="0"/>
      <stop offset="1" stop-color="#000"/>
    </linearGradient>
    <clipPath id="clippath-1">
      <path class="st0" d="M.3,288.4c0-2.1,1.7-3.8,3.8-3.8h5.7v59.2h-5.7c-2.1,0-3.8-1.7-3.8-3.8v-51.6Z"/>
    </clipPath>
    <linearGradient id="linear-gradient3" x1="5" y1="1215.4" x2="5" y2="1209.7" gradientTransform="translate(0 1500) scale(1 -1)" gradientUnits="userSpaceOnUse">
      <stop offset="0" stop-color="#000"/>
      <stop offset="1" stop-color="#000" stop-opacity="0"/>
    </linearGradient>
    <linearGradient id="linear-gradient4" x1="9.8" y1="1185.8" x2="3.1" y2="1185.8" gradientTransform="translate(0 1500) scale(1 -1)" gradientUnits="userSpaceOnUse">
      <stop offset="0" stop-color="#000"/>
      <stop offset="1" stop-color="#aeaeae" stop-opacity="0"/>
    </linearGradient>
    <linearGradient id="linear-gradient5" x1="5" y1="1166.4" x2="5" y2="1156.2" gradientTransform="translate(0 1500) scale(1 -1)" gradientUnits="userSpaceOnUse">
      <stop offset="0" stop-color="#000" stop-opacity="0"/>
      <stop offset="1" stop-color="#000"/>
    </linearGradient>
    <clipPath id="clippath-2">
      <path class="st0" d="M.3,403c0-2.1,1.7-3.8,3.8-3.8h5.7v107h-5.7c-2.1,0-3.8-1.7-3.8-3.8v-99.3Z"/>
    </clipPath>
    <linearGradient id="linear-gradient6" x1="5" y1="1100.8" x2="5" y2="1093.2" gradientTransform="translate(0 1500) scale(1 -1)" gradientUnits="userSpaceOnUse">
      <stop offset="0" stop-color="#000"/>
      <stop offset="1" stop-color="#000" stop-opacity="0"/>
    </linearGradient>
    <linearGradient id="linear-gradient7" x1="9.8" y1="1047.4" x2="3.1" y2="1047.4" gradientTransform="translate(0 1500) scale(1 -1)" gradientUnits="userSpaceOnUse">
      <stop offset="0" stop-color="#000"/>
      <stop offset="1" stop-color="#aeaeae" stop-opacity="0"/>
    </linearGradient>
    <linearGradient id="linear-gradient8" x1="5" y1="1001.5" x2="5" y2="993.9" gradientTransform="translate(0 1500) scale(1 -1)" gradientUnits="userSpaceOnUse">
      <stop offset="0" stop-color="#000" stop-opacity="0"/>
      <stop offset="1" stop-color="#000"/>
    </linearGradient>
    <clipPath id="clippath-3">
      <path class="st0" d="M.3,542.4c0-2.1,1.7-3.8,3.8-3.8h5.7v106.9h-5.7c-2.1,0-3.8-1.7-3.8-3.8v-99.3Z"/>
    </clipPath>
    <linearGradient id="linear-gradient9" x1="5" y1="961.4" x2="5" y2="953.8" gradientTransform="translate(0 1500) scale(1 -1)" gradientUnits="userSpaceOnUse">
      <stop offset="0" stop-color="#000"/>
      <stop offset="1" stop-color="#000" stop-opacity="0"/>
    </linearGradient>
    <linearGradient id="linear-gradient10" x1="9.8" y1="908" x2="3.1" y2="908" gradientTransform="translate(0 1500) scale(1 -1)" gradientUnits="userSpaceOnUse">
      <stop offset="0" stop-color="#000"/>
      <stop offset="1" stop-color="#aeaeae" stop-opacity="0"/>
    </linearGradient>
    <linearGradient id="linear-gradient11" x1="5" y1="862.1" x2="5" y2="854.5" gradientTransform="translate(0 1500) scale(1 -1)" gradientUnits="userSpaceOnUse">
      <stop offset="0" stop-color="#000" stop-opacity="0"/>
      <stop offset="1" stop-color="#000"/>
    </linearGradient>
    <clipPath id="clippath-4">
      <rect class="st0" x="6" width="720" height="1499.2" rx="118.4" ry="118.4"/>
    </clipPath>
    <linearGradient id="linear-gradient12" x1="571.3" y1="1500" x2="571.3" y2="1492.4" gradientTransform="translate(0 1500) scale(1 -1)" gradientUnits="userSpaceOnUse">
      <stop offset="0" stop-color="#393939"/>
      <stop offset="1" stop-color="#4e4e4e"/>
    </linearGradient>
    <linearGradient id="linear-gradient13" x1="827.7" y1="949.8" x2="827.7" y2="942.2" gradientTransform="translate(955.8 988.2) rotate(-90) scale(1 -1)" gradientUnits="userSpaceOnUse">
      <stop offset="0" stop-color="#393939"/>
      <stop offset="1" stop-color="#4e4e4e"/>
    </linearGradient>
    <linearGradient id="linear-gradient14" x1="6" y1="161.2" x2="13.6" y2="161.2" gradientTransform="translate(0 1500) scale(1 -1)" gradientUnits="userSpaceOnUse">
      <stop offset="0" stop-color="#393939"/>
      <stop offset="1" stop-color="#4e4e4e"/>
    </linearGradient>
    <linearGradient id="linear-gradient15" x1="131.1" y1=".8" x2="131.1" y2="8.4" gradientTransform="translate(0 1500) scale(1 -1)" gradientUnits="userSpaceOnUse">
      <stop offset="0" stop-color="#393939"/>
      <stop offset="1" stop-color="#4e4e4e"/>
    </linearGradient>
    <linearGradient id="linear-gradient16" x1="726" y1="161.2" x2="718.4" y2="161.2" gradientTransform="translate(0 1500) scale(1 -1)" gradientUnits="userSpaceOnUse">
      <stop offset="0" stop-color="#393939"/>
      <stop offset="1" stop-color="#4e4e4e"/>
    </linearGradient>
  </defs>
  <path class="st6" d="M607.6,1H124.4C59.5,1,7,53.5,7,118.4v1262.4c0,64.9,52.6,117.5,117.5,117.5h483.2c64.9,0,117.5-52.6,117.5-117.5V118.4c0-64.9-52.6-117.5-117.5-117.5ZM707.9,1342.7c0,8.3-6.7,15-15,15H39.2c-8.3,0-15-6.7-15-15V157.3c0-8.3,6.7-15,15-15h653.7c8.3,0,15,6.7,15,15v1185.5Z"/>
  <g class="st38">
    <g>
      <path class="st19" d="M731.7,658.9c0,2.1-1.7,3.8-3.8,3.8h-5.7v-189.1h5.7c2.1,0,3.8,1.7,3.8,3.8v181.4Z"/>
      <path class="st28" d="M731.7,658.9c0,2.1-1.7,3.8-3.8,3.8h-5.7v-189.1h5.7c2.1,0,3.8,1.7,3.8,3.8v181.4Z"/>
      <path class="st8" d="M731.7,658.9c0,2.1-1.7,3.8-3.8,3.8h-5.7v-189.1h5.7c2.1,0,3.8,1.7,3.8,3.8v181.4Z"/>
      <path class="st34" d="M731.7,658.9c0,2.1-1.7,3.8-3.8,3.8h-5.7v-189.1h5.7c2.1,0,3.8,1.7,3.8,3.8v181.4Z"/>
      <path class="st7" d="M729.8,486c0,.5-.4,1-1,1h0c-.5,0-1-.4-1-1v-2.9h1.9v2.9Z"/>
      <path class="st37" d="M729.8,651.2h-1.9v-172.8c0-.5.4-1,1-1h0c.5,0,1,.4,1,1v172.8Z"/>
      <path d="M731.7,655.1h-1.9v-180.5c0-.5.4-1,1-1h0c.5,0,1,.4,1,1v180.5Z"/>
    </g>
  </g>
  <g class="st21">
    <g>
      <path class="st19" d="M.3,288.4c0-2.1,1.7-3.8,3.8-3.8h5.7v59.2h-5.7c-2.1,0-3.8-1.7-3.8-3.8v-51.6Z"/>
      <path class="st29" d="M.3,288.4c0-2.1,1.7-3.8,3.8-3.8h5.7v59.2h-5.7c-2.1,0-3.8-1.7-3.8-3.8v-51.6Z"/>
      <path class="st10" d="M.3,288.4c0-2.1,1.7-3.8,3.8-3.8h5.7v59.2h-5.7c-2.1,0-3.8-1.7-3.8-3.8v-51.6Z"/>
      <path class="st32" d="M.3,288.4c0-2.1,1.7-3.8,3.8-3.8h5.7v59.2h-5.7c-2.1,0-3.8-1.7-3.8-3.8v-51.6Z"/>
      <path class="st7" d="M2.2,287.4c0-.5.4-1,1-1h0c.5,0,1,.4,1,1v2.9h-1.9v-2.9Z"/>
      <path class="st37" d="M2.2,290.3h1.9v48.7c0,.5-.4,1-1,1h0c-.5,0-1-.4-1-1v-48.7Z"/>
      <path d="M.3,282.7h1.9v64c0,.5-.4,1-1,1h0c-.5,0-1-.4-1-1v-64Z"/>
    </g>
  </g>
  <g class="st24">
    <g>
      <path class="st19" d="M.3,403c0-2.1,1.7-3.8,3.8-3.8h5.7v107h-5.7c-2.1,0-3.8-1.7-3.8-3.8v-99.3Z"/>
      <path class="st30" d="M.3,403c0-2.1,1.7-3.8,3.8-3.8h5.7v107h-5.7c-2.1,0-3.8-1.7-3.8-3.8v-99.3Z"/>
      <path class="st9" d="M.3,403c0-2.1,1.7-3.8,3.8-3.8h5.7v107h-5.7c-2.1,0-3.8-1.7-3.8-3.8v-99.3Z"/>
      <path class="st33" d="M.3,403c0-2.1,1.7-3.8,3.8-3.8h5.7v107h-5.7c-2.1,0-3.8-1.7-3.8-3.8v-99.3Z"/>
      <path class="st7" d="M2.2,402c0-.5.4-1,1-1h0c.5,0,1,.4,1,1v4.8h-1.9v-4.8Z"/>
      <path class="st37" d="M2.2,404.9h1.9v98.4c0,.5-.4,1-1,1h0c-.5,0-1-.4-1-1v-98.4Z"/>
      <path d="M.3,399.2h1.9v109.8c0,.5-.4,1-1,1h0c-.5,0-1-.4-1-1v-109.8Z"/>
    </g>
  </g>
  <g class="st22">
    <g>
      <path class="st19" d="M.3,542.4c0-2.1,1.7-3.8,3.8-3.8h5.7v106.9h-5.7c-2.1,0-3.8-1.7-3.8-3.8v-99.3Z"/>
      <path class="st31" d="M.3,542.4c0-2.1,1.7-3.8,3.8-3.8h5.7v106.9h-5.7c-2.1,0-3.8-1.7-3.8-3.8v-99.3Z"/>
      <path class="st15" d="M.3,542.4c0-2.1,1.7-3.8,3.8-3.8h5.7v106.9h-5.7c-2.1,0-3.8-1.7-3.8-3.8v-99.3Z"/>
      <path class="st27" d="M.3,542.4c0-2.1,1.7-3.8,3.8-3.8h5.7v106.9h-5.7c-2.1,0-3.8-1.7-3.8-3.8v-99.3Z"/>
      <path class="st7" d="M2.2,543.3c0-.5.4-1,1-1h0c.5,0,1,.4,1,1v2.9h-1.9v-2.9Z"/>
      <path class="st37" d="M2.2,544.3h1.9v98.4c0,.5-.4,1-1,1h0c-.5,0-1-.4-1-1v-98.4Z"/>
      <path d="M.3,538.6h1.9v109.8c0,.5-.4,1-1,1h0c-.5,0-1-.4-1-1v-109.8Z"/>
    </g>
  </g>
  <g class="st23">
    <g>
      <rect class="st4" x="8.9" y="2.9" width="714.3" height="1493.5" rx="115.5" ry="115.5"/>
      <rect class="st1" x="7" y="1" width="718.1" height="1497.3" rx="117.5" ry="117.5"/>
      <rect class="st2" x="16.5" y="10.5" width="700.9" height="1480.1" rx="109.8" ry="109.8"/>
      <rect class="st3" x="13.3" y="7.3" width="705.5" height="1484.7" rx="111.2" ry="111.2"/>
      <rect class="st12" x="565.6" width="11.5" height="7.6"/>
      <rect class="st11" x="6" y="154.7" width="7.6" height="11.5"/>
      <rect class="st16" x="6" y="1333.1" width="7.6" height="11.5"/>
      <rect class="st13" x="126.3" y="1491.6" width="9.5" height="7.6"/>
      <rect class="st14" x="718.4" y="1333.1" width="7.6" height="11.5"/>
    </g>
  </g>
  <path class="st17" d="M289.6,45.8h150.9c16.3,0,29.6,13.3,29.6,29.6h0c0,16.3-13.3,29.6-29.6,29.6h-150.9c-16.3,0-29.6-13.3-29.6-29.6h0c0-16.3,13.3-29.6,29.6-29.6Z"/>
  <circle class="st18" cx="438.8" cy="75.7" r="18.4"/>
  <circle class="st20" cx="438.8" cy="75.7" r="10.2"/>
  <circle class="st35" cx="438.8" cy="75.7" r="6.1"/>
  <circle class="st36" cx="438.8" cy="73.6" r="2"/>
  <path class="st5" d="M619.2,64h32.5c3.7,0,6.6,3,6.6,6.6v9.5c0,3.7-3,6.6-6.6,6.6h-32.5c-3.7,0-6.6-3-6.6-6.6v-9.5c0-3.7,3-6.6,6.6-6.6Z"/>
  <path class="st26" d="M661.2,72.6v8.1c1.6-.7,2.7-2.3,2.7-4s-1.1-3.3-2.7-4"/>
  <path class="st25" d="M615.4,70.7c0-2.1,1.7-3.8,3.8-3.8h32.5c2.1,0,3.8,1.7,3.8,3.8v9.5c0,2.1-1.7,3.8-3.8,3.8h-32.5c-2.1,0-3.8-1.7-3.8-3.8v-9.5Z"/>
  <path class="st25" d="M579.3,80.4c2.7-2.3,6.7-2.3,9.4,0,.1.1.2.3.2.5,0,.2,0,.4-.2.5l-4.2,4.4c-.1.1-.3.2-.5.2-.2,0-.3,0-.5-.2l-4.2-4.4c-.1-.1-.2-.3-.2-.5,0-.2,0-.4.2-.5ZM573.6,75c5.8-5.5,14.9-5.5,20.7,0,.1.1.2.3.2.5,0,.2,0,.4-.2.5l-2.5,2.5c-.3.3-.7.3-.9,0-1.9-1.8-4.4-2.8-7-2.8-2.6,0-5.1,1-7,2.8-.3.3-.7.2-.9,0l-2.5-2.5c-.1-.1-.2-.3-.2-.5,0-.2,0-.4.2-.5ZM567.9,69.6c9-8.8,23.1-8.8,32.1,0,.1.1.2.3.2.5,0,.2,0,.4-.2.5l-2.5,2.5c-.3.3-.7.3-.9,0-3.4-3.3-7.9-5.2-12.7-5.2-4.7,0-9.2,1.8-12.7,5.2-.3.3-.7.3-.9,0l-2.5-2.5c-.1-.1-.2-.3-.2-.5,0-.2,0-.4.2-.5Z"/>
  <path class="st25" d="M539,68.8c0-1.1.9-1.9,1.9-1.9h1.9c1.1,0,1.9.9,1.9,1.9v15.3c0,1.1-.9,1.9-1.9,1.9h-1.9c-1.1,0-1.9-.9-1.9-1.9v-15.3Z"/>
  <path class="st25" d="M548.6,64.9c0-1.1.9-1.9,1.9-1.9h1.9c1.1,0,1.9.9,1.9,1.9v19.1c0,1.1-.9,1.9-1.9,1.9h-1.9c-1.1,0-1.9-.9-1.9-1.9v-19.1Z"/>
  <path class="st25" d="M529.5,75.4c0-1.1.9-1.9,1.9-1.9h1.9c1.1,0,1.9.9,1.9,1.9v8.6c0,1.1-.9,1.9-1.9,1.9h-1.9c-1.1,0-1.9-.9-1.9-1.9v-8.6Z"/>
  <path class="st25" d="M519.9,80.2c0-1.1.9-1.9,1.9-1.9h1.9c1.1,0,1.9.9,1.9,1.9v3.8c0,1.1-.9,1.9-1.9,1.9h-1.9c-1.1,0-1.9-.9-1.9-1.9v-3.8Z"/>
  <path class="st25" d="M115.5,63.4c4.4,0,8.2,3.1,8.2,10.5h0c0,6.9-3.1,11-8.3,11s-6.6-2.2-7.2-5.4v-.2s3.6,0,3.6,0h0c.5,1.6,1.8,2.5,3.6,2.5,3.2,0,4.6-3.2,4.8-7.1,0-.2,0-.3,0-.5h-.3c-.8,1.6-2.5,3-5.3,3s-6.7-2.9-6.7-6.7h0c0-4.2,3.2-7.2,7.6-7.2ZM115.5,74.6c2.3,0,4.1-1.7,4.1-4h0c0-2.4-1.8-4.2-4-4.2s-4.1,1.8-4.1,4.1h0c0,2.4,1.7,4.1,4,4.1ZM128.7,71.1c-1.3,0-2.3-1-2.3-2.2s1-2.2,2.3-2.2,2.3,1,2.3,2.2-.9,2.2-2.3,2.2ZM128.7,81.6c-1.3,0-2.3-1-2.3-2.2s1-2.2,2.3-2.2,2.3,1,2.3,2.2-.9,2.2-2.3,2.2ZM143.7,84.4v-3.9h-10v-3c2.7-4.6,5.6-9.3,8.3-13.5h5.2v13.5h2.8v3h-2.8v3.9h-3.5ZM137.1,77.5h6.7v-10.7h-.2c-2.1,3.2-4.5,7-6.5,10.5v.2ZM157.1,84.4v-16.9h-.2l-5.1,3.6v-3.4l5.3-3.8h3.6v20.5h-3.7Z"/>
</svg>