<svg width="57" height="47" viewBox="0 0 57 47" fill="none" xmlns="http://www.w3.org/2000/svg">
<g clip-path="url(#clip0_9_310)">
<path d="M9.04964 0H0V7.70509H9.06894C14.8001 7.70509 19.4625 12.3672 19.4625 18.0987C19.4625 23.8302 14.8001 28.4923 9.06894 28.4923H0V36.1974H9.04964C19.0291 36.1974 27.1483 28.0787 27.1483 18.0987C27.1483 8.11864 19.0291 0 9.04964 0Z" fill="white"/>
<path d="M47.9503 0H56.9999V7.70509H47.931C42.1998 7.70509 37.5374 12.3672 37.5374 18.0987C37.5374 23.8302 42.1998 28.4923 47.931 28.4923H56.9999V36.1974H47.9503C37.9708 36.1974 29.8516 28.0787 29.8516 18.0987C29.8519 8.11864 37.9708 0 47.9503 0Z" fill="white"/>
</g>
<defs>
<clipPath id="clip0_9_310">
<rect width="57" height="46.7032" fill="white"/>
</clipPath>
</defs>
</svg>
