<?xml version="1.0" encoding="UTF-8"?>
<svg id="Layer_1" xmlns="http://www.w3.org/2000/svg" version="1.1" viewBox="0 0 128 128">
  <!-- Generator: Adobe Illustrator 30.0.0, SVG Export Plug-In . SVG Version: 2.1.1 Build 123)  -->
  <defs>
    <style>
      .st0 {
        fill: #fff;
      }
    </style>
  </defs>
  <rect width="128" height="128"/>
  <g>
    <path class="st0" d="M28.3,30.8H11.7v14.1h16.6c10.5,0,19.1,8.6,19.1,19.1s-8.6,19.1-19.1,19.1H11.7v14.1h16.6c18.3,0,33.2-14.9,33.2-33.2S46.6,30.8,28.3,30.8Z"/>
    <path class="st0" d="M99.7,30.8h16.6v14.1h-16.6c-10.5,0-19.1,8.6-19.1,19.1s8.6,19.1,19.1,19.1h16.6v14.1h-16.6c-18.3,0-33.2-14.9-33.2-33.2,0-18.3,14.9-33.2,33.2-33.2Z"/>
  </g>
</svg>